PathFileType	4	(X/Y/Z)	C:\Users\WrightLab\Desktop\Jo\P3_9.trc
DataRate	CameraRate	NumFrames	NumMarkers	Units	OrigDataRate	OrigDataStartFrame	OrigNumFrames
100.00	100.00	       10	19	mm	100.00	268	       535
Frame#	Time	Headset_Front			Headset_Back			Headset_Left			Headset_Right			Left_Shoulder			Right_Shoulder			Sternum			C7			Left Elbow			Right Elbow			Left Wrist			Right Wrist			Left ASIS			Right ASIS			S2			Left Knee			Right Knee			Left Ankle			Right Ankle			
		X1	Y1	Z1	X2	Y2	Z2	X3	Y3	Z3	X4	Y4	Z4	X5	Y5	Z5	X6	Y6	Z6	X7	Y7	Z7	X8	Y8	Z8	X9	Y9	Z9	X10	Y10	Z10	X11	Y11	Z11	X12	Y12	Z12	X13	Y13	Z13	X14	Y14	Z14	X15	Y15	Z15	X16	Y16	Z16	X17	Y17	Z17	X18	Y18	Z18	X19	Y19	Z19	

268	2.670	-297.92365	1452.21558	342.90790	-231.43994	1638.29443	573.46759	-361.22672	1558.92725	513.19714	-170.48029	1515.25745	401.92023	-370.03992	1359.30969	684.57104	-66.40331	1355.51233	498.39966	-290.69717	1232.06653	491.26691	-188.84706	1409.98425	627.67529	-453.05542	1033.01440	719.92963	13.02482	1019.13379	416.02444	-523.18060	873.41565	603.12549	-64.01363	919.75714	220.27885	-355.67920	864.08978	578.32208	-132.96336	956.33545	681.04053				-271.92191	447.55536	636.33850	-192.80865	479.65390	351.78656	-197.84541	126.58660	679.36273	-127.77077	150.38588	417.59033	
269	2.680				-235.83722	1637.61621	566.00153	-365.93228	1558.52612	505.11172	-173.85794	1514.28723	395.61606	-373.65582	1359.29175	676.98230	-70.34090	1354.65723	489.55118	-294.32986	1231.26147	484.46249	-192.65253	1408.99084	620.25189	-459.07889	1033.15686	711.20264	8.96406	1019.00659	406.43338	-529.15503	874.14777	593.67615	-67.47433	921.85175	209.26033	-359.50803	863.12109	571.12836	-136.47978	955.82147	673.26904				-273.98392	447.10126	633.21930	-196.09335	478.43744	345.29935	-198.07664	126.71819	678.90228	-142.68268	144.57091	392.02069	
270	2.690				-238.51733	1636.47217	557.95752	-369.79236	1557.58557	497.16714	-176.84703	1513.40747	387.47772	-377.52670	1358.48218	669.58167	-74.57470	1353.58948	481.84622	-298.62564	1230.49451	477.17709	-196.61545	1408.26514	612.82935	-464.66028	1032.96143	702.57898	5.07684	1019.33447	395.86456	-534.97919	874.76764	584.33459	-71.41354	923.71906	198.02036	-363.70551	862.67145	564.24945	-139.87343	955.04865	665.34650				-275.52435	446.61649	630.65674	-199.16039	477.02393	339.25909	-198.44795	126.78489	678.13123	-157.61870	140.26151	367.72101	
271	2.700				-243.17621	1635.91528	550.48108	-372.88791	1556.21118	488.89777	-180.13853	1512.07800	380.48380	-381.51114	1357.71387	662.24176	-78.26638	1352.69409	473.49200	-302.83875	1229.10168	470.16354	-200.13643	1407.08765	605.57745	-470.15942	1032.80396	693.98523	1.24770	1019.21332	386.18594	-540.87207	875.02802	574.70984	-74.72221	925.41992	186.62192	-368.25055	862.16125	556.45355	-143.94910	954.42609	658.26257				-277.64966	446.20557	627.49182	-201.96017	474.79935	333.68835	-198.35959	126.97965	677.54266	-172.92596	137.22221	343.75317	
272	2.710	-309.33890	1447.50793	312.41837	-246.63858	1634.36523	542.78815	-375.92825	1554.68591	480.87488	-183.56293	1511.06396	373.26205	-384.80063	1356.45605	654.39209	-83.89540	1351.13208	468.57040	-307.16690	1227.97766	463.32687	-204.17976	1406.21558	598.40479	-474.37869	1032.08752	685.58051	-2.70834	1019.01801	376.02402	-545.58490	874.90314	565.45282	-78.22504	926.58777	175.96916	-372.49261	861.71136	548.67810	-147.79155	952.87128	650.52972				-279.99420	445.29596	624.50812	-204.86661	472.62604	327.46417	-198.08485	127.08549	676.41113	-188.08195	135.48450	320.60471	
273	2.720	-313.23315	1446.05261	304.53482	-249.81694	1633.32581	534.71057	-380.14575	1554.08093	472.58502	-186.45421	1509.71680	364.97958	-388.44574	1355.91589	647.08368	-88.59938	1349.80957	460.77481	-311.66592	1227.25415	455.57797	-207.52621	1405.01965	590.50366	-479.71832	1031.27002	676.75098	-6.68228	1018.96735	365.32343	-550.58997	874.80505	556.53717	-81.73473	928.09967	165.08398	-376.02469	859.61353	544.75818	-151.50269	952.25195	642.74884				-281.92874	444.84457	620.98071	-207.20129	470.42130	320.77530	-198.53264	127.57492	675.84369	-202.32144	135.08083	300.42725	
274	2.730	-315.23795	1444.44275	296.90854	-254.11754	1632.49536	527.04968	-383.63055	1553.20422	464.80133	-189.53131	1507.88977	358.91107	-392.40176	1354.75842	640.07465	-92.67200	1348.44336	452.99255	-315.38434	1225.79724	448.46951	-211.34856	1403.77832	583.33942	-484.96835	1030.73828	668.74475	-11.10972	1018.21100	355.17651	-555.66840	874.57495	547.52618	-84.96918	928.86603	153.85071	-380.27762	858.59045	538.01465	-154.89020	951.22510	633.93463				-283.96710	443.85306	617.53949	-210.08981	468.95972	314.66370	-199.20760	128.27382	675.21924	-217.29990	135.76866	280.64316	
275	2.740	-318.73187	1442.30847	289.56622	-258.03156	1631.64429	519.17297	-386.98679	1551.71533	456.13123	-193.29456	1506.54150	351.06546	-395.94553	1353.56873	632.85333	-97.04219	1347.30872	445.22067	-319.16290	1224.42676	441.41098	-215.11298	1402.65112	575.86914	-489.77048	1029.53271	660.32971	-14.11720	1018.02832	345.63000	-560.87555	874.02368	538.65314	-88.19721	929.52496	143.17633	-384.67981	857.71191	531.12836	-159.29529	949.50769	625.80084				-286.57434	443.70355	613.74261	-213.74673	467.15546	308.54630	-199.73996	128.58270	674.71002	-229.79378	136.08881	264.06516	
276	2.750	-321.04922	1440.35913	282.44757	-262.39664	1630.68701	511.51013	-391.14728	1550.26306	448.53870	-196.17236	1504.88416	343.46265	-399.86328	1352.26062	625.84741	-101.20665	1346.21484	437.30362	-323.94720	1223.76501	433.89069	-219.10579	1401.21252	568.71320	-494.63513	1029.06970	652.16046	-18.51072	1017.95636	335.97058	-566.02472	873.30243	530.09460	-91.38093	929.95612	132.69223	-389.22989	856.51599	524.64594	-162.89233	947.96539	617.55048				-288.98172	442.93411	609.80859	-217.61906	466.22614	302.20404	-200.21855	128.88374	673.78375	-242.58412	137.09172	247.30774	
277	2.760	-323.49908	1438.64697	274.81824	-265.42606	1629.30676	503.28253	-393.75089	1548.65857	440.01474	-199.20856	1503.32410	335.25290	-403.47504	1350.68152	618.53857	-105.23580	1344.82068	428.97192	-328.26303	1222.43506	426.64157	-222.56799	1399.52942	560.99524	-498.85922	1027.41711	643.32678	-22.29961	1017.49628	325.28003	-570.69299	872.71783	521.97937	-94.67728	930.25159	122.41876	-393.72018	855.28357	517.27856	-167.37103	946.22235	608.93091				-291.56271	442.16846	605.81860	-222.11247	464.86230	296.31332	-200.77165	129.37048	673.23187	-253.45451	138.52530	233.08476	
